<?xml version="1.0" encoding="utf-8"?>
<svg xmlns="http://www.w3.org/2000/svg"
	xmlns:xlink="http://www.w3.org/1999/xlink"
	width="33px" height="40px" viewBox="0 0 33 40">
<path fillRule="evenodd" d="M 32.94 17.43C 32.94 17.43 30.82 35.94 30.82 35.94 30.56 38.22 28.58 40 26.4 40 26.4 40 6.59 40 6.59 40 4.4 40 2.43 38.22 2.17 35.94 2.17 35.94 0.05 17.43 0.05 17.43-0.31 14.3 1.58 11.67 4.28 11.67 4.28 11.67 8.36 11.67 8.36 11.67 8.36 11.53 8.35 11.41 8.35 11.25 8.35 5.96 9.78-0 16.5-0 23.23-0 24.65 5.96 24.65 11.25 24.52 11.41 24.4 11.54 24.28 11.67 24.28 11.67 28.71 11.67 28.71 11.67 31.41 11.67 33.3 14.3 32.94 17.43ZM 21.8 11.25C 21.8 7.81 21.8 3.33 16.5 3.33 11.21 3.33 11.21 7.81 11.21 11.25 11.21 11.4 11.2 11.53 11.2 11.67 11.2 11.67 21.85 11.67 21.85 11.67 21.87 11.5 21.86 11.34 21.8 11.25ZM 26.91 14.17C 26.91 14.17 9.35 14.17 9.35 14.17 9.17 14.31 8.98 14.35 8.81 14.17 8.81 14.17 6.1 14.17 6.1 14.17 3.8 14.17 2.19 16.34 2.5 18.91 2.5 18.91 4.3 34.15 4.3 34.15 4.52 36.03 6.21 37.5 8.07 37.5 8.07 37.5 24.93 37.5 24.93 37.5 26.8 37.5 28.48 36.03 28.7 34.15 28.7 34.15 30.51 18.91 30.51 18.91 30.81 16.34 29.2 14.17 26.91 14.17ZM 21.8 20.84C 20.68 20.84 19.76 19.9 19.76 18.75 19.76 17.6 20.68 16.67 21.8 16.67 22.93 16.67 23.84 17.6 23.84 18.75 23.84 19.9 22.93 20.84 21.8 20.84ZM 11.21 20.84C 10.08 20.84 9.17 19.9 9.17 18.75 9.17 17.6 10.08 16.67 11.21 16.67 12.33 16.67 13.24 17.6 13.24 18.75 13.24 19.9 12.33 20.84 11.21 20.84Z" fill="rgb(255,255,255)"/></svg>